--------------------------------------------
 
http://www.imdb.com/title/tt1764647/?ref_=fn_al_tt_1

89 min  -  Thriller  -  19 March 2013 (USA)
4,8 Your rating:    -/10   Ratings: 4,8/10 from 372 users   
Reviews: 9 user | 13 critic

SUBTiTLES.......: Bulgarian
SUBTiTLES.......: English

Screens: 
http://imgsure.com/?p=194835 
http://imgsure.com/?p=449827

Language : English

Format                           : Matroska
Format version                   : Version 4 / Version 2
File size                        : 696 MiB
Duration                         : 1h 28mn
Overall bit rate                 : 1 094 Kbps
Movie name                       : www.energy-torrent.com
Encoded date                     : UTC 2013-04-16 06:51:29
Writing application              : mkvmerge v6.1.0 ('Old Devil' built on Mar  2 2013 14:32:37
Writing library                  : libebml v1.3.0 + libmatroska v1.4.0

Video
ID                               : 1
Format                           : MPEG-4 Visual
Format profile                   : Advanced Simple@L5
Format settings, BVOP            : Yes
Format settings, QPel            : No
Format settings, GMC             : No warppoints
Format settings, Matrix          : Default (H.263)
Codec ID                         : XVID
Codec ID/Hint                    : XviD
Duration                         : 1h 28mn
Bit rate                         : 944 Kbps
Width                            : 640 pixels
Height                           : 272 pixels
Display aspect ratio             : 2.35:1
Frame rate                       : 23.976 fps
Color space                      : YUV
Chroma subsampling               : 4:2:0
Bit depth                        : 8 bits
Scan type                        : Progressive
Compression mode                 : Lossy
Bits/(Pixel*Frame)               : 0.226
Stream size                      : 601 MiB (86%)
Writing library                  : XviD 64

Audio
ID                               : 2
Format                           : MPEG Audio
Format version                   : Version 1
Format profile                   : Layer 3
Mode                             : Joint stereo
Codec ID                         : A_MPEG/L3
Codec ID/Hint                    : MP3
Duration                         : 1h 28mn
Bit rate mode                    : Constant
Bit rate                         : 128 Kbps
Channel(s)                       : 2 channels
Sampling rate                    : 48.0 KHz
Compression mode                 : Lossy
Stream size                      : 81.4 MiB (12%)
Writing library                  : LAME3.99.5

Text #1
ID                               : 3
Format                           : UTF-8
Codec ID                         : S_TEXT/UTF8
Codec ID/Info                    : UTF-8 Plain Text
Title                            : by Motley
Language                         : Bulgarian

Text #2
ID                               : 4
Format                           : UTF-8
Codec ID                         : S_TEXT/UTF8
Codec ID/Info                    : UTF-8 Plain Text
Title                            : by Motley
Language                         : Russian

Text #3
ID                               : 5
Format                           : UTF-8
Codec ID                         : S_TEXT/UTF8
Codec ID/Info                    : UTF-8 Plain Text
Title                            : by Motley
Language                         : English

--------------------------------------------

More at   
http://publichash.com/

--------------------------------------------	